<?xml version="1.0" encoding="iso-8859-1"?>
<!-- Uploaded to: SVG Repo, www.svgrepo.com, Generator: SVG Repo Mixer Tools -->
<svg height="800px" width="800px" version="1.1" id="Layer_1" xmlns="http://www.w3.org/2000/svg" xmlns:xlink="http://www.w3.org/1999/xlink" 
	 viewBox="0 0 496.158 496.158" xml:space="preserve">
<path style="fill:#48A1AF;" d="M248.082,0.003C111.07,0.003,0,111.063,0,248.085c0,137.001,111.07,248.07,248.082,248.07
	c137.006,0,248.076-111.069,248.076-248.07C496.158,111.062,385.088,0.003,248.082,0.003z"/>
<path style="fill:#3D3D3D;" d="M244.817,127.354c-46.326,0-83.944,17.108-84.687,62.858h12.981
	c0.743-38.507,32.55-49.876,71.705-49.876c39.154,0,70.961,11.37,71.705,49.876h12.981
	C328.762,144.462,291.142,127.354,244.817,127.354z"/>
<g>
	<path style="fill:#CACBCC;" d="M451.24,263.062c-12.827-38.717-63.251-56.839-112.629-40.48
		c-49.377,16.36-79.006,61.004-66.179,99.722c12.828,38.716,63.253,56.838,112.628,40.479
		C434.437,346.423,464.068,301.779,451.24,263.062z M378.199,342.072c-34.789,11.525-70.313-1.24-79.351-28.52
		c-9.04-27.28,11.836-58.731,46.625-70.258c34.787-11.525,70.313,1.24,79.353,28.52
		C433.863,299.093,412.988,330.545,378.199,342.072z"/>
	<path style="fill:#CACBCC;" d="M384.193,218.949l-13.747-41.491c-2.558-7.723-10.892-11.912-18.622-9.351l-55.18,18.282
		c-7.723,2.559-11.91,10.896-9.352,18.619l13.747,41.491C303.599,254.225,386.754,226.675,384.193,218.949z"/>
</g>
<path style="fill:#4F4F4F;" d="M325.861,210.71c-1.56-4.707,0.992-9.79,5.698-11.349c4.708-1.56,9.79,0.993,11.35,5.7
	c1.021,3.083,0.255,6.31-1.705,8.62c0.11,0.285,0.235,0.556,0.334,0.854c1.56,4.707,0.825,9.188-1.638,10.002
	c-2.464,0.816-5.723-2.339-7.281-7.046c-0.101-0.298-0.162-0.59-0.242-0.885C329.424,215.924,326.882,213.793,325.861,210.71z"/>
<path style="fill:#3D3D3D;" d="M340.183,215.548c-0.099-0.297-0.225-0.568-0.337-0.854c1.962-2.31,2.729-5.537,1.708-8.62
	c-1.56-4.708-6.643-7.26-11.348-5.7c-0.673,0.222-1.289,0.531-1.866,0.886c0.907-0.825,1.981-1.489,3.219-1.899
	c4.708-1.56,9.79,0.993,11.35,5.7c1.021,3.083,0.255,6.31-1.705,8.62c0.11,0.285,0.235,0.556,0.334,0.854
	c1.56,4.707,0.825,9.188-1.638,10.002c-0.014,0.006-0.031,0.003-0.048,0.009C341.197,222.8,341.412,219.259,340.183,215.548z"/>
<g>
	<path style="fill:#CACBCC;" d="M157.547,222.582c-49.378-16.359-99.8,1.763-112.629,40.48
		c-12.828,38.716,16.803,83.361,66.18,99.72s99.799-1.762,112.628-40.479C236.553,283.587,206.924,238.942,157.547,222.582z
		 M197.309,313.552c-9.038,27.279-44.562,40.045-79.351,28.52c-34.789-11.527-55.664-42.979-46.627-70.258
		c9.04-27.28,44.565-40.045,79.353-28.52C185.474,254.821,206.35,286.272,197.309,313.552z"/>
	<path style="fill:#CACBCC;" d="M199.514,186.389l-55.179-18.282c-7.732-2.561-16.065,1.628-18.623,9.351l-13.746,41.491
		c-2.56,7.726,80.594,35.276,83.151,27.549l13.748-41.491C211.424,197.284,207.236,188.947,199.514,186.389z"/>
</g>
<path style="fill:#4F4F4F;" d="M164.598,199.361c-4.707-1.56-9.789,0.993-11.349,5.7c-1.021,3.083-0.255,6.31,1.707,8.62
	c-0.112,0.285-0.238,0.556-0.336,0.854c-1.56,4.707-0.825,9.188,1.638,10.002c2.463,0.816,5.725-2.339,7.283-7.046
	c0.099-0.298,0.16-0.59,0.24-0.885c2.953-0.682,5.495-2.813,6.516-5.896C171.858,206.003,169.305,200.92,164.598,199.361z"/>
<path style="fill:#3D3D3D;" d="M164.598,199.361c-4.707-1.56-9.789,0.993-11.349,5.7c-1.021,3.083-0.255,6.31,1.707,8.62
	c-0.112,0.285-0.238,0.556-0.336,0.854c-1.56,4.707-0.825,9.188,1.638,10.002c0.014,0.006,0.033,0.003,0.05,0.009
	c-1.348-1.746-1.562-5.287-0.333-8.998c0.101-0.297,0.225-0.568,0.337-0.854c-1.962-2.31-2.729-5.537-1.708-8.62
	c1.56-4.708,6.642-7.26,11.35-5.7c0.671,0.222,1.287,0.531,1.865,0.886C166.91,200.435,165.835,199.771,164.598,199.361z"/>
</svg>